<svg width="24" height="25" viewBox="0 0 24 25" fill="none" xmlns="http://www.w3.org/2000/svg">
<path d="M7 21.3773H4C3.45 21.3773 3 20.9273 3 20.3773V9.06726C3 8.64726 3.25 8.27726 3.64 8.12726L14.64 3.89726C14.7921 3.83858 14.9561 3.81796 15.118 3.83718C15.2798 3.85641 15.4345 3.9149 15.5686 4.00757C15.7027 4.10024 15.8121 4.22428 15.8873 4.36888C15.9624 4.51349 16.0012 4.67428 16 4.83726V10.3773H8C7.45 10.3773 7 10.8273 7 11.3773V21.3773ZM17 12.3773H10C9.45 12.3773 9 12.8273 9 13.3773V20.3773C9 20.9273 9.45 21.3773 10 21.3773H14V17.3773C14 16.8273 14.45 16.3773 15 16.3773C15.55 16.3773 16 16.8273 16 17.3773V21.3773H20C20.55 21.3773 21 20.9273 21 20.3773V12.3773C21 11.2773 20.1 10.3773 19 10.3773C17.9 10.3773 17 11.2773 17 12.3773Z" fill="#565855"/>
</svg>
